<mxfile host="app.diagrams.net" modified="2024-01-08T03:06:31.468Z" agent="Mozilla/5.0 (Windows NT 10.0; Win64; x64) AppleWebKit/537.36 (KHTML, like Gecko) Chrome/120.0.0.0 Safari/537.36 Edg/120.0.0.0" etag="ugvzgPkfISKnxxuMkJbG" version="22.1.17" type="device">
  <diagram name="Page-1" id="FuqJeeWCXTog0FfLWw7b">
    <mxGraphModel dx="1933" dy="1110" grid="1" gridSize="10" guides="1" tooltips="1" connect="1" arrows="1" fold="1" page="1" pageScale="1" pageWidth="1169" pageHeight="827" background="none" math="0" shadow="0">
      <root>
        <mxCell id="0" />
        <mxCell id="1" parent="0" />
        <mxCell id="rjBVLlcpMKJkq3QgmslR-22" value="" style="ellipse;whiteSpace=wrap;html=1;rotation=-45;" vertex="1" parent="1">
          <mxGeometry x="597.96" y="140.11" width="180.77" height="265.04" as="geometry" />
        </mxCell>
        <mxCell id="V-Z7bskzWQpBXHc2QCV2-2" value="&lt;h1&gt;Master&lt;/h1&gt;" style="text;html=1;strokeColor=#b85450;fillColor=#f8cecc;spacing=5;spacingTop=-20;whiteSpace=wrap;overflow=hidden;rounded=0;align=center;" parent="1" vertex="1">
          <mxGeometry x="40" y="300" width="140" height="40" as="geometry" />
        </mxCell>
        <mxCell id="V-Z7bskzWQpBXHc2QCV2-3" value="&lt;h1&gt;Subbranch&lt;/h1&gt;" style="text;html=1;strokeColor=#6c8ebf;fillColor=#dae8fc;spacing=5;spacingTop=-20;whiteSpace=wrap;overflow=hidden;rounded=0;" parent="1" vertex="1">
          <mxGeometry x="40" y="200" width="140" height="40" as="geometry" />
        </mxCell>
        <mxCell id="rjBVLlcpMKJkq3QgmslR-4" style="edgeStyle=orthogonalEdgeStyle;rounded=0;orthogonalLoop=1;jettySize=auto;html=1;entryX=0;entryY=0.5;entryDx=0;entryDy=0;" edge="1" parent="1" source="V-Z7bskzWQpBXHc2QCV2-5" target="V-Z7bskzWQpBXHc2QCV2-6">
          <mxGeometry relative="1" as="geometry" />
        </mxCell>
        <mxCell id="V-Z7bskzWQpBXHc2QCV2-5" value="&lt;font style=&quot;font-size: 13px;&quot;&gt;master_1&lt;/font&gt;" style="rounded=1;whiteSpace=wrap;html=1;fillColor=#f8cecc;strokeColor=#b85450;" parent="1" vertex="1">
          <mxGeometry x="230" y="300" width="80" height="40" as="geometry" />
        </mxCell>
        <mxCell id="rjBVLlcpMKJkq3QgmslR-5" style="edgeStyle=orthogonalEdgeStyle;rounded=0;orthogonalLoop=1;jettySize=auto;html=1;entryX=0;entryY=0.5;entryDx=0;entryDy=0;" edge="1" parent="1" source="V-Z7bskzWQpBXHc2QCV2-6" target="V-Z7bskzWQpBXHc2QCV2-7">
          <mxGeometry relative="1" as="geometry" />
        </mxCell>
        <mxCell id="V-Z7bskzWQpBXHc2QCV2-6" value="&lt;font style=&quot;font-size: 13px;&quot;&gt;master_2&lt;/font&gt;" style="rounded=1;whiteSpace=wrap;html=1;fillColor=#f8cecc;strokeColor=#b85450;" parent="1" vertex="1">
          <mxGeometry x="350" y="300" width="80" height="40" as="geometry" />
        </mxCell>
        <mxCell id="rjBVLlcpMKJkq3QgmslR-8" style="edgeStyle=orthogonalEdgeStyle;rounded=0;orthogonalLoop=1;jettySize=auto;html=1;entryX=0;entryY=0.5;entryDx=0;entryDy=0;" edge="1" parent="1" source="V-Z7bskzWQpBXHc2QCV2-7" target="rjBVLlcpMKJkq3QgmslR-1">
          <mxGeometry relative="1" as="geometry" />
        </mxCell>
        <mxCell id="V-Z7bskzWQpBXHc2QCV2-7" value="&lt;font style=&quot;font-size: 13px;&quot;&gt;master_3&lt;/font&gt;" style="rounded=1;whiteSpace=wrap;html=1;fillColor=#f8cecc;strokeColor=#b85450;" parent="1" vertex="1">
          <mxGeometry x="470" y="300" width="80" height="40" as="geometry" />
        </mxCell>
        <mxCell id="rjBVLlcpMKJkq3QgmslR-12" style="edgeStyle=orthogonalEdgeStyle;rounded=0;orthogonalLoop=1;jettySize=auto;html=1;entryX=0;entryY=0.5;entryDx=0;entryDy=0;" edge="1" parent="1" source="V-Z7bskzWQpBXHc2QCV2-8" target="rjBVLlcpMKJkq3QgmslR-3">
          <mxGeometry relative="1" as="geometry" />
        </mxCell>
        <mxCell id="V-Z7bskzWQpBXHc2QCV2-8" value="&lt;font style=&quot;font-size: 13px;&quot;&gt;subbranch_4&lt;/font&gt;" style="rounded=1;whiteSpace=wrap;html=1;fillColor=#dae8fc;strokeColor=#6c8ebf;" parent="1" vertex="1">
          <mxGeometry x="590" y="200" width="80" height="40" as="geometry" />
        </mxCell>
        <mxCell id="rjBVLlcpMKJkq3QgmslR-9" style="edgeStyle=orthogonalEdgeStyle;rounded=0;orthogonalLoop=1;jettySize=auto;html=1;entryX=0;entryY=0.5;entryDx=0;entryDy=0;" edge="1" parent="1" source="rjBVLlcpMKJkq3QgmslR-1" target="rjBVLlcpMKJkq3QgmslR-2">
          <mxGeometry relative="1" as="geometry" />
        </mxCell>
        <mxCell id="rjBVLlcpMKJkq3QgmslR-1" value="&lt;font style=&quot;font-size: 13px;&quot;&gt;master_5&lt;/font&gt;" style="rounded=1;whiteSpace=wrap;html=1;fillColor=#f8cecc;strokeColor=#b85450;" vertex="1" parent="1">
          <mxGeometry x="710" y="300" width="80" height="40" as="geometry" />
        </mxCell>
        <mxCell id="rjBVLlcpMKJkq3QgmslR-2" value="&lt;font style=&quot;font-size: 13px;&quot;&gt;master_6&lt;/font&gt;" style="rounded=1;whiteSpace=wrap;html=1;fillColor=#f8cecc;strokeColor=#b85450;" vertex="1" parent="1">
          <mxGeometry x="830" y="300" width="80" height="40" as="geometry" />
        </mxCell>
        <mxCell id="rjBVLlcpMKJkq3QgmslR-3" value="&lt;font style=&quot;font-size: 13px;&quot;&gt;subbranch_7&lt;/font&gt;" style="rounded=1;whiteSpace=wrap;html=1;fillColor=#dae8fc;strokeColor=#6c8ebf;" vertex="1" parent="1">
          <mxGeometry x="950" y="200" width="80" height="40" as="geometry" />
        </mxCell>
        <mxCell id="rjBVLlcpMKJkq3QgmslR-7" value="" style="endArrow=classic;html=1;rounded=0;exitX=0.75;exitY=0;exitDx=0;exitDy=0;entryX=0;entryY=1;entryDx=0;entryDy=0;" edge="1" parent="1" source="V-Z7bskzWQpBXHc2QCV2-7" target="V-Z7bskzWQpBXHc2QCV2-8">
          <mxGeometry width="50" height="50" relative="1" as="geometry">
            <mxPoint x="550" y="310" as="sourcePoint" />
            <mxPoint x="600" y="260" as="targetPoint" />
          </mxGeometry>
        </mxCell>
        <mxCell id="rjBVLlcpMKJkq3QgmslR-13" value="" style="endArrow=classic;html=1;rounded=0;strokeWidth=3;" edge="1" parent="1">
          <mxGeometry width="50" height="50" relative="1" as="geometry">
            <mxPoint x="40" y="400" as="sourcePoint" />
            <mxPoint x="1081.0769418569712" y="400" as="targetPoint" />
          </mxGeometry>
        </mxCell>
        <mxCell id="rjBVLlcpMKJkq3QgmslR-14" value="&lt;h1&gt;&lt;font style=&quot;font-size: 15px;&quot;&gt;Commit time&lt;/font&gt;&lt;/h1&gt;" style="text;html=1;strokeColor=none;fillColor=none;spacing=5;spacingTop=-20;whiteSpace=wrap;overflow=hidden;rounded=0;align=center;gradientColor=default;" vertex="1" parent="1">
          <mxGeometry x="40" y="360" width="140" height="40" as="geometry" />
        </mxCell>
        <mxCell id="rjBVLlcpMKJkq3QgmslR-15" value="" style="endArrow=none;dashed=1;html=1;dashPattern=1 3;strokeWidth=2;rounded=0;" edge="1" parent="1">
          <mxGeometry width="50" height="50" relative="1" as="geometry">
            <mxPoint x="270" y="400" as="sourcePoint" />
            <mxPoint x="270" y="340" as="targetPoint" />
          </mxGeometry>
        </mxCell>
        <mxCell id="rjBVLlcpMKJkq3QgmslR-16" value="" style="endArrow=none;dashed=1;html=1;dashPattern=1 3;strokeWidth=2;rounded=0;" edge="1" parent="1">
          <mxGeometry width="50" height="50" relative="1" as="geometry">
            <mxPoint x="389.64" y="400" as="sourcePoint" />
            <mxPoint x="389.64" y="340" as="targetPoint" />
          </mxGeometry>
        </mxCell>
        <mxCell id="rjBVLlcpMKJkq3QgmslR-17" value="" style="endArrow=none;dashed=1;html=1;dashPattern=1 3;strokeWidth=2;rounded=0;" edge="1" parent="1">
          <mxGeometry width="50" height="50" relative="1" as="geometry">
            <mxPoint x="509.64" y="400" as="sourcePoint" />
            <mxPoint x="509.64" y="340" as="targetPoint" />
          </mxGeometry>
        </mxCell>
        <mxCell id="rjBVLlcpMKJkq3QgmslR-18" value="" style="endArrow=none;dashed=1;html=1;dashPattern=1 3;strokeWidth=2;rounded=0;" edge="1" parent="1">
          <mxGeometry width="50" height="50" relative="1" as="geometry">
            <mxPoint x="749.64" y="400" as="sourcePoint" />
            <mxPoint x="749.64" y="340" as="targetPoint" />
          </mxGeometry>
        </mxCell>
        <mxCell id="rjBVLlcpMKJkq3QgmslR-19" value="" style="endArrow=none;dashed=1;html=1;dashPattern=1 3;strokeWidth=2;rounded=0;" edge="1" parent="1">
          <mxGeometry width="50" height="50" relative="1" as="geometry">
            <mxPoint x="869.64" y="400" as="sourcePoint" />
            <mxPoint x="869.64" y="340" as="targetPoint" />
          </mxGeometry>
        </mxCell>
        <mxCell id="rjBVLlcpMKJkq3QgmslR-20" value="" style="endArrow=none;dashed=1;html=1;dashPattern=1 3;strokeWidth=2;rounded=0;" edge="1" parent="1">
          <mxGeometry width="50" height="50" relative="1" as="geometry">
            <mxPoint x="630" y="400" as="sourcePoint" />
            <mxPoint x="629.64" y="240" as="targetPoint" />
          </mxGeometry>
        </mxCell>
        <mxCell id="rjBVLlcpMKJkq3QgmslR-21" value="" style="endArrow=none;dashed=1;html=1;dashPattern=1 3;strokeWidth=2;rounded=0;" edge="1" parent="1">
          <mxGeometry width="50" height="50" relative="1" as="geometry">
            <mxPoint x="990.15" y="400" as="sourcePoint" />
            <mxPoint x="989.79" y="240" as="targetPoint" />
          </mxGeometry>
        </mxCell>
        <mxCell id="rjBVLlcpMKJkq3QgmslR-23" value="Conflict" style="text;html=1;strokeColor=none;fillColor=none;align=center;verticalAlign=middle;whiteSpace=wrap;rounded=0;" vertex="1" parent="1">
          <mxGeometry x="658.35" y="257.63" width="60" height="30" as="geometry" />
        </mxCell>
      </root>
    </mxGraphModel>
  </diagram>
</mxfile>
